<svg id="Layer_1" xmlns="http://www.w3.org/2000/svg" viewBox="0 0 422.3 114.3"><style>.st0{fill:#00adee}.st1{fill:#4e5c66}</style><path class="st0" d="M114.7 114.3L0 56.8 114.7 0v114.3zM6.9 56.8l104.8 52.6V4.9L6.9 56.8z"/><path class="st1" d="M62.7 11h-2.9c7.8 12.1 12.6 28 12.6 45.5 0 17.2-4.6 33-12.2 44.9h3.2C74.8 91 82.1 74.8 82.1 56.5c0-18.6-7.6-35.1-19.4-45.5zm99.6 55.5c.3.7.8 1.8 1.2 1.8.4 0 1-1.1 1.2-1.8l12.8-34H188l-17.5 42.3c-1.6 3.9-4.5 4.1-7 4.1-1.7 0-5.4.1-7.1-4.1l-17.5-42.3h10.5l12.9 34zm55.1-34c3.9 0 7.4 1.4 9.5 3.5 2 2 3.4 5.6 3.4 10.8v23.8c0 1.7-.2 4.2-1.8 5.9-1.6 1.6-4.2 1.8-6.3 1.8h-21.9c-2.5 0-5.6.1-8.3-2.3-3.7-3.3-4-9-4-12.4 0-4.1.4-8.1 3.9-11.2 2.8-2.5 6-2.7 8.4-2.7h19.9v-3.2c0-1.4-.2-2.9-1.3-4.3-1.4-1.7-3.3-2-4.9-2h-22.6v-7.8h26zm-14.1 25.1c-.7 0-2.6.1-3.7 1.6-.3.4-1.1 1.6-1.1 4.9 0 1.4.1 3.8 1.4 5.1.7.7 2 1.4 3.3 1.4h14.1c1.4.3 3.5-1 2.9-2.4V57.6h-16.9zm51.2 35.5h-10.3l7-14.9-20.4-45.6h10.5L256 67.7l15.5-35h10.3l-27.3 60.4zm51 0h-10.3l7-14.9-20.4-45.6h10.5L307 67.7l15.5-35h10.3l-27.3 60.4zm56.7-60.6c3.9 0 7.4 1.4 9.5 3.5 2 2 3.4 5.6 3.4 10.8v23.8c0 1.7-.2 4.2-1.8 5.9-1.6 1.6-4.2 1.8-6.3 1.8h-22c-2.5 0-5.6.1-8.3-2.3-3.7-3.3-4-9-4-12.4 0-4.1.4-8.1 3.9-11.2 2.9-2.5 6-2.7 8.4-2.7h19.9v-3.2c0-1.4-.2-2.9-1.3-4.3-1.4-1.7-3.3-2-4.9-2h-22.6v-7.8h26.1zm-14.1 25.1c-.7 0-2.6.1-3.7 1.6-.3.4-1.1 1.6-1.1 4.9 0 1.4.1 3.8 1.4 5.1.7.7 2 1.4 3.3 1.4h14c1.4.3 3.5-1 2.9-2.4V57.6h-16.8zm33.6-7.8c0-5.1.9-9.9 4.7-13.3 4.2-3.7 10.2-4 13.7-4h6.8v7.8h-4.2c-2.7 0-6.2.4-8.6 3.2-2 2.3-2.3 5.5-2.3 9v25.8h-10.1V49.8zm28.6 28.5v-6.2h-2.8v-.8h6.4v.8h-2.8v6.2h-.8zm8.9-.7c-.1.4-.4.8-.8.8-.5 0-.7-.4-.9-.8l-2-5.4c0-.1-.1-.2-.2-.2s-.1 0-.1.2v6.1h-.8v-6.4c0-.6.5-.7.7-.7.8 0 1 .5 1.1.7l2 5.5c.1.1.1.2.2.2s.1-.2.2-.2l2-5.5c.2-.6.8-.7 1.1-.7.2 0 .7.1.7.7v6.4h-.8v-6.1c0-.2-.1-.2-.1-.2-.1 0-.1.1-.2.2l-2.1 5.4z"/></svg>